{
	"asset":{
		"generator":"Khronos glTF Blender I/O v4.2.57",
		"version":"2.0"
	},
	"scene":0,
	"scenes":[
		{
			"name":"Scene",
			"nodes":[
				0
			]
		}
	],
	"nodes":[
		{
			"mesh":0,
			"name":"Picture Frame",
			"rotation":[
				0,
				0,
				-0.7071066498756409,
				0.7071069478988647
			],
			"scale":[
				1.64950430393219,
				1.64950430393219,
				1.64950430393219
			],
			"translation":[
				0.0506591796875,
				0,
				-0.030813217163085938
			]
		}
	],
	"materials":[
		{
			"doubleSided":true,
			"name":"Material.001",
			"pbrMetallicRoughness":{
				"baseColorFactor":[
					0.3229178190231323,
					0.09144258499145508,
					0.011836941353976727,
					1
				],
				"roughnessFactor":0.25909093022346497
			}
		},
		{
			"doubleSided":true,
			"name":"Wood Wall.001",
			"normalTexture":{
				"index":0,
				"texCoord":1
			},
			"pbrMetallicRoughness":{
				"baseColorTexture":{
					"index":1,
					"texCoord":1
				},
				"metallicFactor":0,
				"metallicRoughnessTexture":{
					"index":2,
					"texCoord":1
				}
			}
		}
	],
	"meshes":[
		{
			"name":"Cube.001",
			"primitives":[
				{
					"attributes":{
						"POSITION":0,
						"NORMAL":1,
						"TEXCOORD_0":2,
						"TEXCOORD_1":3
					},
					"indices":4,
					"material":0
				},
				{
					"attributes":{
						"POSITION":5,
						"NORMAL":6,
						"TEXCOORD_0":7,
						"TEXCOORD_1":8
					},
					"indices":9,
					"material":1
				}
			]
		}
	],
	"textures":[
		{
			"sampler":0,
			"source":0
		},
		{
			"sampler":0,
			"source":1
		},
		{
			"sampler":0,
			"source":2
		}
	],
	"images":[
		{
			"mimeType":"image/png",
			"name":"normalmap",
			"uri":"normalmap.png"
		},
		{
			"mimeType":"image/png",
			"name":"Screenshot 2025-03-10 211518",
			"uri":"Screenshot%202025-03-10%20211518.png"
		},
		{
			"mimeType":"image/png",
			"name":"roughness",
			"uri":"roughness.png"
		}
	],
	"accessors":[
		{
			"bufferView":0,
			"componentType":5126,
			"count":349,
			"max":[
				0.4873693287372589,
				0.05912350118160248,
				0.5850000381469727
			],
			"min":[
				-0.4873693287372589,
				-3.998258648607589e-07,
				-0.5850000381469727
			],
			"type":"VEC3"
		},
		{
			"bufferView":1,
			"componentType":5126,
			"count":349,
			"type":"VEC3"
		},
		{
			"bufferView":2,
			"componentType":5126,
			"count":349,
			"type":"VEC2"
		},
		{
			"bufferView":3,
			"componentType":5126,
			"count":349,
			"type":"VEC2"
		},
		{
			"bufferView":4,
			"componentType":5123,
			"count":1320,
			"type":"SCALAR"
		},
		{
			"bufferView":5,
			"componentType":5126,
			"count":24,
			"max":[
				0.3314111530780792,
				0.0060002682730555534,
				0.4650000333786011
			],
			"min":[
				-0.3314111530780792,
				-2.710303306230344e-07,
				-0.4650000333786011
			],
			"type":"VEC3"
		},
		{
			"bufferView":6,
			"componentType":5126,
			"count":24,
			"type":"VEC3"
		},
		{
			"bufferView":7,
			"componentType":5126,
			"count":24,
			"type":"VEC2"
		},
		{
			"bufferView":8,
			"componentType":5126,
			"count":24,
			"type":"VEC2"
		},
		{
			"bufferView":9,
			"componentType":5123,
			"count":36,
			"type":"SCALAR"
		}
	],
	"bufferViews":[
		{
			"buffer":0,
			"byteLength":4188,
			"byteOffset":0,
			"target":34962
		},
		{
			"buffer":0,
			"byteLength":4188,
			"byteOffset":4188,
			"target":34962
		},
		{
			"buffer":0,
			"byteLength":2792,
			"byteOffset":8376,
			"target":34962
		},
		{
			"buffer":0,
			"byteLength":2792,
			"byteOffset":11168,
			"target":34962
		},
		{
			"buffer":0,
			"byteLength":2640,
			"byteOffset":13960,
			"target":34963
		},
		{
			"buffer":0,
			"byteLength":288,
			"byteOffset":16600,
			"target":34962
		},
		{
			"buffer":0,
			"byteLength":288,
			"byteOffset":16888,
			"target":34962
		},
		{
			"buffer":0,
			"byteLength":192,
			"byteOffset":17176,
			"target":34962
		},
		{
			"buffer":0,
			"byteLength":192,
			"byteOffset":17368,
			"target":34962
		},
		{
			"buffer":0,
			"byteLength":72,
			"byteOffset":17560,
			"target":34963
		}
	],
	"samplers":[
		{
			"magFilter":9729,
			"minFilter":9987
		}
	],
	"buffers":[
		{
			"byteLength":17632,
			"uri":"coding.bin"
		}
	]
}
