{
	"asset":{
		"generator":"Khronos glTF Blender I/O v4.2.57",
		"version":"2.0"
	},
	"extensionsUsed":[
		"KHR_materials_transmission"
	],
	"scene":0,
	"scenes":[
		{
			"name":"Scene",
			"nodes":[
				1
			]
		}
	],
	"nodes":[
		{
			"mesh":0,
			"name":"tmp1pumxkug.ply"
		},
		{
			"children":[
				0
			],
			"name":"world"
		}
	],
	"materials":[
		{
			"alphaMode":"BLEND",
			"doubleSided":true,
			"extensions":{
				"KHR_materials_transmission":{
					"transmissionFactor":1
				}
			},
			"name":"Pink crystal",
			"pbrMetallicRoughness":{
				"baseColorFactor":[
					1,
					1,
					1,
					0.8218181729316711
				],
				"baseColorTexture":{
					"index":0,
					"texCoord":1
				},
				"metallicFactor":0
			}
		}
	],
	"meshes":[
		{
			"name":"tmp1pumxkug.ply",
			"primitives":[
				{
					"attributes":{
						"POSITION":0,
						"NORMAL":1,
						"TEXCOORD_0":2,
						"TEXCOORD_1":3
					},
					"indices":4,
					"material":0
				}
			]
		}
	],
	"textures":[
		{
			"sampler":0,
			"source":0
		}
	],
	"images":[
		{
			"mimeType":"image/png",
			"name":"texture (1)",
			"uri":"texture_1.png"
		}
	],
	"accessors":[
		{
			"bufferView":0,
			"componentType":5126,
			"count":23202,
			"max":[
				0.6718246936798096,
				0.9904088377952576,
				0.42299407720565796
			],
			"min":[
				-0.6803153157234192,
				-0.9977459907531738,
				-0.41985249519348145
			],
			"type":"VEC3"
		},
		{
			"bufferView":1,
			"componentType":5126,
			"count":23202,
			"type":"VEC3"
		},
		{
			"bufferView":2,
			"componentType":5126,
			"count":23202,
			"type":"VEC2"
		},
		{
			"bufferView":3,
			"componentType":5126,
			"count":23202,
			"type":"VEC2"
		},
		{
			"bufferView":4,
			"componentType":5123,
			"count":120000,
			"type":"SCALAR"
		}
	],
	"bufferViews":[
		{
			"buffer":0,
			"byteLength":278424,
			"byteOffset":0,
			"target":34962
		},
		{
			"buffer":0,
			"byteLength":278424,
			"byteOffset":278424,
			"target":34962
		},
		{
			"buffer":0,
			"byteLength":185616,
			"byteOffset":556848,
			"target":34962
		},
		{
			"buffer":0,
			"byteLength":185616,
			"byteOffset":742464,
			"target":34962
		},
		{
			"buffer":0,
			"byteLength":240000,
			"byteOffset":928080,
			"target":34963
		}
	],
	"samplers":[
		{
			"magFilter":9729,
			"minFilter":9987
		}
	],
	"buffers":[
		{
			"byteLength":1168080,
			"uri":"gem.bin"
		}
	]
}
